<svg width="22" height="29" viewBox="0 0 22 29" fill="none" xmlns="http://www.w3.org/2000/svg">
<path opacity="0.5" d="M11 22.0952C10.2707 22.0952 9.57118 21.8043 9.05546 21.2863C8.53973 20.7683 8.25 20.0658 8.25 19.3333C8.25 17.8005 9.47375 16.5714 11 16.5714C11.7293 16.5714 12.4288 16.8624 12.9445 17.3804C13.4603 17.8983 13.75 18.6008 13.75 19.3333C13.75 20.0658 13.4603 20.7683 12.9445 21.2863C12.4288 21.8043 11.7293 22.0952 11 22.0952ZM19.25 26.2381V12.4286H2.75V26.2381H19.25ZM19.25 9.66667C19.9793 9.66667 20.6788 9.95765 21.1945 10.4756C21.7103 10.9936 22 11.6961 22 12.4286V26.2381C22 26.9706 21.7103 27.6731 21.1945 28.1911C20.6788 28.709 19.9793 29 19.25 29H2.75C2.02065 29 1.32118 28.709 0.805456 28.1911C0.289731 27.6731 0 26.9706 0 26.2381V12.4286C0 10.8957 1.22375 9.66667 2.75 9.66667H4.125V6.90476C4.125 5.0735 4.84933 3.31725 6.13864 2.02236C7.42795 0.727464 9.17664 0 11 0C11.9028 0 12.7968 0.178597 13.6309 0.525594C14.4651 0.87259 15.223 1.38119 15.8614 2.02236C16.4998 2.66352 17.0062 3.4247 17.3517 4.26242C17.6972 5.10015 17.875 5.99802 17.875 6.90476V9.66667H19.25ZM11 2.7619C9.90598 2.7619 8.85677 3.19838 8.08318 3.97532C7.3096 4.75226 6.875 5.80601 6.875 6.90476V9.66667H15.125V6.90476C15.125 5.80601 14.6904 4.75226 13.9168 3.97532C13.1432 3.19838 12.094 2.7619 11 2.7619Z" fill="#2B2B2B"/>
</svg>
