<svg width="31" height="31" viewBox="0 0 31 31" fill="none" xmlns="http://www.w3.org/2000/svg">
<path opacity="0.5" d="M9.4067 21.573C6.27041 18.4307 3.85849 14.6411 2.33961 10.4693C1.50399 8.18845 2.26961 5.68304 3.98753 3.96512L5.05065 2.90345C5.33647 2.61706 5.67596 2.38985 6.04969 2.23482C6.42343 2.0798 6.82406 2 7.22867 2C7.63329 2 8.03392 2.0798 8.40766 2.23482C8.78139 2.38985 9.12088 2.61706 9.4067 2.90345L11.8961 5.39283C12.1825 5.67864 12.4097 6.01813 12.5647 6.39187C12.7197 6.7656 12.7995 7.16624 12.7995 7.57085C12.7995 7.97546 12.7197 8.3761 12.5647 8.74983C12.4097 9.12357 12.1825 9.46306 11.8961 9.74887L11.2836 10.3614C11.0384 10.6065 10.8439 10.8975 10.7112 11.2178C10.5785 11.5381 10.5103 11.8814 10.5103 12.228C10.5103 12.5747 10.5785 12.918 10.7112 13.2383C10.8439 13.5586 11.0384 13.8496 11.2836 14.0947L16.8836 19.6962C17.1287 19.9413 17.4197 20.1358 17.74 20.2685C18.0603 20.4012 18.4036 20.4695 18.7502 20.4695C19.0969 20.4695 19.4402 20.4012 19.7605 20.2685C20.0808 20.1358 20.3718 19.9413 20.6169 19.6962L21.2309 19.0837C21.5167 18.7973 21.8562 18.5701 22.2299 18.415C22.6036 18.26 23.0043 18.1802 23.4089 18.1802C23.8135 18.1802 24.2141 18.26 24.5879 18.415C24.9616 18.5701 25.3011 18.7973 25.5869 19.0837L28.0763 21.573C28.3627 21.8589 28.5899 22.1983 28.7449 22.5721C28.8999 22.9458 28.9797 23.3464 28.9797 23.7511C28.9797 24.1557 28.8999 24.5563 28.7449 24.93C28.5899 25.3038 28.3627 25.6433 28.0763 25.9291L27.0146 26.9907C25.2967 28.7101 22.7913 29.4757 20.5104 28.6401C16.3387 27.1212 12.5491 24.7093 9.4067 21.573Z" stroke="#2B2B2B" stroke-width="3" stroke-linejoin="round"/>
</svg>
