<svg width="47" height="57" viewBox="0 0 47 57" fill="none" xmlns="http://www.w3.org/2000/svg">
<path d="M13.0578 17.956L13.0507 23.1579L5.24775 23.1472L5.21556 46.5558L41.6292 46.6059L41.6614 23.1973L33.8585 23.1866L33.8656 17.9846L41.6685 17.9954C43.0482 17.9973 44.3706 18.5472 45.3448 19.524C46.319 20.5009 46.8652 21.8248 46.8633 23.2044L46.8311 46.613C46.8292 47.9926 46.2794 49.315 45.3025 50.2892C44.3256 51.2634 43.0017 51.8097 41.622 51.8078L5.2084 51.7577C3.82876 51.7558 2.50638 51.2059 1.53216 50.229C0.557952 49.2521 0.0117113 47.9282 0.013609 46.5486L0.0458076 23.14C0.0477053 21.7604 0.597586 20.438 1.57448 19.4638C2.55138 18.4896 3.87527 17.9434 5.25491 17.9453L13.0578 17.956ZM25.7843 0.986678L34.509 9.73269C34.9964 10.2214 35.2697 10.8837 35.2687 11.5739C35.2678 12.2641 34.9927 12.9257 34.5039 13.413C34.0152 13.9004 33.3529 14.1737 32.6627 14.1727C31.9725 14.1718 31.3109 13.8967 30.8236 13.408L26.0755 8.6443L26.0412 33.5796C26.0403 34.2694 25.7653 34.9306 25.2769 35.4177C24.7884 35.9048 24.1265 36.178 23.4367 36.177C22.7469 36.1761 22.0857 35.9011 21.5986 35.4127C21.1115 34.9242 20.8383 34.2623 20.8393 33.5725L20.8736 8.63714L16.1125 13.3877C15.8705 13.6291 15.5833 13.8204 15.2674 13.9507C14.9515 14.0811 14.613 14.1479 14.2712 14.1474C13.9295 14.147 13.5912 14.0792 13.2756 13.948C12.96 13.8168 12.6734 13.6247 12.4321 13.3827C12.1908 13.1407 11.9995 12.8535 11.8691 12.5376C11.7388 12.2217 11.6719 11.8832 11.6724 11.5415C11.6729 11.1997 11.7406 10.8614 11.8719 10.5458C12.0031 10.2303 12.1952 9.94366 12.4371 9.70233L21.1884 0.980356C21.7989 0.372088 22.6259 0.0310763 23.4877 0.0322617C24.3495 0.0334471 25.1755 0.376733 25.7843 0.986678Z" fill="white"/>
</svg>
